<?xml version="1.0" encoding="UTF-8"?>
<svg width="123px" height="30px" viewBox="0 0 123 30" version="1.1" xmlns="http://www.w3.org/2000/svg" xmlns:xlink="http://www.w3.org/1999/xlink">
    <title>Logo</title>
    <g id="UI" stroke="none" stroke-width="1" fill="none" fill-rule="evenodd">
        <g id="首頁B版-Copy" transform="translate(-165.000000, -25.000000)" fill="#365ABD" fill-rule="nonzero">
            <g id="InfuseAI" transform="translate(165.000000, 25.000000)">
                <g id="logo">
                    <path d="M29.0505606,20.6597812 L16.782011,5.27708333 L4.29321685,20.6753021 C3.79551721,21.3928509 2.9383299,21.7712606 2.07319663,21.6553414 C1.20806335,21.5394222 0.480554557,20.9486791 0.189029391,20.1253821 C-0.102495775,19.3020851 0.0910157639,18.3847651 0.690202854,17.749625 L13.8598937,1.50707292 C14.5736626,0.621836826 15.6499895,0.108132623 16.786664,0.110191713 C17.9440852,0.112228706 19.022971,0.634334057 19.7335976,1.52880208 L32.6830439,17.7620417 C33.2351232,18.461161 33.3400102,19.4142861 32.9531864,20.2168694 C32.5663627,21.0194528 31.7556893,21.5306955 30.8652512,21.5336042 C30.1588254,21.5345658 29.4905978,21.212796 29.0505606,20.6597812 Z" id="Shape"></path>
                    <path d="M23.7197129,29.6587604 L9.88308446,29.6587604 C9.01143486,29.726477 8.17543056,29.2994733 7.71888809,28.5533598 C7.26234561,27.8072462 7.26234561,26.8679933 7.71888809,26.1218798 C8.17543056,25.3757662 9.01143486,24.9487626 9.88308446,25.0164792 L23.7181619,25.0164792 C24.9295787,25.1105915 25.8646116,26.121723 25.8646116,27.3376198 C25.8646116,28.5535166 24.9295787,29.5646481 23.7181619,29.6587604 L23.7197129,29.6587604 Z" id="Shape"></path>
                    <path d="M17.9018457,15.0272708 C17.6214496,14.713885 17.2209776,14.5347881 16.8006232,14.5347881 C16.3802688,14.5347881 15.9797967,14.713885 15.6994006,15.0272708 C15.0169529,15.7893438 14.0847913,16.8726979 13.095242,18.1485104 C12.7476657,18.5960794 12.6855995,19.2028194 12.935349,19.7115756 C13.1850985,20.2203318 13.7029267,20.542009 14.2693624,20.5402778 L19.3427411,20.5402778 C19.9072188,20.5378645 20.4212594,20.21461 20.6682876,19.7067005 C20.9153159,19.198791 20.8523832,18.5945324 20.5060043,18.1485104 C19.5164551,16.8726979 18.5842935,15.7893438 17.9018457,15.0272708 Z" id="Shape"></path>
                </g>
                <g id="text" transform="translate(45.261515, 7.342029)">
                    <path d="M0.0757684413,1.25040718 C0.0757684413,0.554868185 0.488629132,0.13754479 1.10869332,0.13754479 C1.70556308,0.13754479 2.11842377,0.554868185 2.11842377,1.25040718 L2.11842377,15.0220792 C2.11842377,15.7176182 1.70556308,16.1349416 1.10869332,16.1349416 C0.490175427,16.1349416 0.0757684413,15.7176182 0.0757684413,15.0220792 L0.0757684413,1.25040718 Z" id="Shape"></path>
                    <path d="M5.92385508,5.83471249 C5.92385508,5.18606377 6.33671577,4.79218551 6.88719669,4.79218551 C7.43767761,4.79218551 7.8505383,5.18606377 7.8505383,5.83471249 L7.8505383,6.15825535 L7.87373272,6.15825535 C8.40101922,5.30016342 9.45713851,4.6515147 10.9477666,4.6515147 C13.3336994,4.6515147 14.7547442,6.29736315 14.7547442,8.82474865 L14.7547442,15.0767845 C14.7547442,15.7254333 14.3418835,16.1193115 13.7914026,16.1193115 C13.2409217,16.1193115 12.828061,15.7254333 12.828061,15.0767845 L12.828061,9.28896232 C12.828061,7.50400607 12.025534,6.45991608 10.3740913,6.45991608 C8.88346317,6.45991608 7.8505383,7.5258882 7.8505383,9.17173665 L7.8505383,15.0845996 C7.8505383,15.7332483 7.43767761,16.1271266 6.88719669,16.1271266 C6.33671577,16.1271266 5.92385508,15.7332483 5.92385508,15.0845996 L5.92385508,5.83471249 Z" id="Shape"></path>
                    <path d="M22.4583845,4.90628516 C22.985671,4.90628516 23.2841059,5.23139103 23.2841059,5.68778965 C23.2841059,6.14418827 22.985671,6.46929413 22.4583845,6.46929413 L20.8301362,6.46929413 C20.7922821,6.4640473 20.7541798,6.47700578 20.7271625,6.50431515 C20.7001451,6.53162452 20.6873252,6.57013871 20.692516,6.60840193 L20.692516,15.0705325 C20.692516,15.7191812 20.2796553,16.1130595 19.7291743,16.1130595 C19.1786934,16.1130595 18.7658327,15.7191812 18.7658327,15.0705325 L18.7658327,6.62246901 C18.7710235,6.58420579 18.7582036,6.5456916 18.7311862,6.51838223 C18.7041689,6.49107286 18.6660666,6.47811439 18.6282125,6.48336121 L18.0096946,6.48336121 C17.4824081,6.48336121 17.1839732,6.15825535 17.1839732,5.70185673 C17.1839732,5.24545811 17.4824081,4.92035224 18.0096946,4.92035224 L18.6282125,4.92035224 C18.6660666,4.92559907 18.7041689,4.9126406 18.7311862,4.88533123 C18.7582036,4.85802185 18.7710235,4.81950767 18.7658327,4.78124444 L18.7658327,3.79342277 C18.7658327,1.12692947 19.8667946,0.246955418 22.1676811,0.246955418 L22.3223106,0.246955418 C22.9872173,0.246955418 23.332041,0.617388544 23.332041,1.1503746 C23.332041,1.68336066 22.9887636,2.05379379 22.3918939,2.05379379 C20.9693027,2.05379379 20.6909697,2.33200939 20.6909697,3.6761971 L20.6909697,4.77030338 C20.6857789,4.80856661 20.6985988,4.84708079 20.7256162,4.87439016 C20.7526335,4.90169953 20.7907358,4.91465801 20.8285899,4.90941118 L22.4583845,4.90628516 Z" id="Shape"></path>
                    <path d="M34.3153725,15.0845996 C34.3153725,15.7332483 33.9025118,16.1271266 33.3520308,16.1271266 C32.8015499,16.1271266 32.3886892,15.7332483 32.3886892,15.0845996 L32.3886892,14.7594937 L32.3654948,14.7594937 C31.8382083,15.6175856 30.8284779,16.2662344 29.3378497,16.2662344 C26.951917,16.2662344 25.5540666,14.6203859 25.5540666,12.0930004 L25.5540666,5.84096453 C25.5540666,5.1923158 25.9669273,4.79843754 26.5174082,4.79843754 C27.0678891,4.79843754 27.4807498,5.1923158 27.4807498,5.84096453 L27.4807498,11.6366018 C27.4807498,13.421558 28.2538971,14.465648 29.9115251,14.465648 C31.4021532,14.465648 32.3855966,13.3996759 32.3855966,11.7538275 L32.3855966,5.83471249 C32.3855966,5.18606377 32.7984573,4.79218551 33.3489383,4.79218551 C33.8994192,4.79218551 34.3122799,5.18606377 34.3122799,5.83471249 L34.3153725,15.0845996 Z" id="Shape"></path>
                    <path d="M37.8007208,15.0377093 C37.5186638,14.8656469 37.3435588,14.5594409 37.3368323,14.2265077 C37.338442,13.9895424 37.433872,13.7630991 37.6018086,13.5977526 C37.7697451,13.4324061 37.9961982,13.3419307 38.2305907,13.3465336 C38.4596463,13.3530492 38.6821701,13.4251349 38.872303,13.5544138 C39.7660613,14.0873999 40.7077548,14.5281684 41.9463369,14.5281684 C43.5297427,14.5281684 44.3554641,13.8326294 44.3554641,12.8588748 C44.3554641,11.9320105 43.9426034,11.4677968 42.1999292,11.2817988 L41.0525786,11.1661361 C38.8970437,10.9348108 37.7728874,9.82194838 37.7728874,8.04011815 C37.7728874,5.93005604 39.2635156,4.65464072 41.8319111,4.65464072 C42.978064,4.63936111 44.10909,4.9201975 45.1177874,5.4705314 C45.5074536,5.6799746 45.6914627,5.93943409 45.6914627,6.28173306 C45.6922885,6.50334999 45.6055583,6.716131 45.4505262,6.87283895 C45.295494,7.0295469 45.0849884,7.11721457 44.8657413,7.11637985 C44.6255505,7.10683515 44.3904842,7.04329524 44.1776402,6.93038178 C43.420675,6.55756292 42.5918972,6.35746666 41.7499575,6.34425342 C40.3737552,6.34425342 39.6624596,6.969457 39.6624596,7.8744392 C39.6624596,8.77942139 40.1665517,9.21862692 41.8179944,9.38117985 L42.9653451,9.49684251 C45.2585002,9.75161297 46.2682306,10.8410302 46.2682306,12.6494316 C46.2682306,14.8282661 44.7080193,16.2663393 41.7948,16.2663393 C40.371221,16.2740454 38.9787006,15.8457249 37.8007208,15.0377093 L37.8007208,15.0377093 Z" id="Shape"></path>
                    <path d="M49.0175427,13.2527531 C48.788691,12.5572141 48.6510708,11.7694576 48.6510708,10.447152 C48.6510708,9.12484638 48.7654966,8.33708986 48.9958945,7.64155086 C49.6144124,5.71748682 51.1978182,4.6515147 53.2853161,4.6515147 C55.4408509,4.6515147 56.9964234,5.71748682 57.5979321,7.62123175 C57.8499781,8.36366101 57.9644039,9.22175293 57.9644039,10.3111702 C57.973386,10.5148809 57.8956179,10.7127245 57.7507718,10.8546542 C57.6059257,10.996584 57.4078752,11.0690057 57.2067195,11.0535994 L50.7586705,11.0535994 C50.7208165,11.0483526 50.6827141,11.0613111 50.6556968,11.0886205 C50.6286795,11.1159298 50.6158596,11.154444 50.6210503,11.1927072 C50.6080917,11.647991 50.6702797,12.102275 50.8050594,12.536895 C51.21792,13.8123103 52.2276505,14.460959 53.5806584,14.460959 C54.6630647,14.460959 55.3929158,14.1358531 56.2186372,13.5106496 C56.4007106,13.3412873 56.6363175,13.2427028 56.8835439,13.232434 C57.0979208,13.2272414 57.305045,13.3110386 57.4566759,13.4643085 C57.6083068,13.6175784 57.6912079,13.8269414 57.6860709,14.0436356 C57.6848831,14.3069803 57.5770323,14.5583397 57.387636,14.7391746 C56.3172346,15.7444109 54.9039391,16.2926555 53.4430382,16.2693604 C51.1715312,16.2677974 49.6360605,15.2002622 49.0175427,13.2527531 Z M55.8521653,9.50153154 C55.8900194,9.50677837 55.9281217,9.49381989 55.955139,9.46651052 C55.9821564,9.43920115 55.9949763,9.40068697 55.9897856,9.36242374 C56.0055084,8.93991012 55.9532863,8.51761769 55.8351561,8.11201656 C55.4686842,6.99915418 54.5501852,6.37238758 53.3116031,6.37238758 C52.073021,6.37238758 51.1560683,6.99759117 50.7880501,8.11201656 C50.6699199,8.51761769 50.6176978,8.93991012 50.6334206,9.36242374 C50.6282299,9.40068697 50.6410498,9.43920115 50.6680672,9.46651052 C50.6950845,9.49381989 50.7331868,9.50677837 50.7710409,9.50153154 L55.8521653,9.50153154 Z" id="Shape"></path>
                    <path d="M60.0240685,14.7141665 L64.8175821,1.29104541 C65.0696282,0.548616149 65.4592944,0.131292754 66.1473956,0.131292754 C66.8354967,0.131292754 67.2715518,0.548616149 67.5235979,1.29104541 L72.2490746,14.7141665 C72.3040458,14.8645446 72.334846,15.0228485 72.3403979,15.1830692 C72.3438875,15.4403092 72.2427645,15.6877409 72.0606162,15.8674252 C71.8784679,16.0471094 71.6312907,16.1432659 71.3769643,16.1333786 C70.9183299,16.144705 70.5112079,15.8383205 70.3904283,15.3909493 L69.3358553,12.3477709 L62.9341952,12.3477709 L61.8796222,15.3846973 C61.7588426,15.8320684 61.3517205,16.1384529 60.8930861,16.1271266 C60.6387597,16.1370139 60.3915826,16.0408573 60.2094342,15.8611731 C60.0272859,15.6814889 59.9261629,15.4340572 59.9296525,15.1768171 C59.9367449,15.0185237 59.9685832,14.86236 60.0240685,14.7141665 L60.0240685,14.7141665 Z M68.6709486,10.448715 L66.1937844,3.28231884 L66.1257475,3.28231884 L63.6021945,10.445589 L68.6709486,10.448715 Z" id="Shape"></path>
                    <path d="M75.0231273,1.25040718 C75.0231273,0.554868185 75.435988,0.13754479 76.0560522,0.13754479 C76.6529219,0.13754479 77.0657826,0.554868185 77.0657826,1.25040718 L77.0657826,15.0220792 C77.0657826,15.7176182 76.6529219,16.1349416 76.0560522,16.1349416 C75.4375343,16.1349416 75.0231273,15.7176182 75.0231273,15.0220792 L75.0231273,1.25040718 Z" id="Shape"></path>
                </g>
            </g>
        </g>
    </g>
</svg>